<svg height="496pt" viewBox="0 0 496 496" width="496pt" xmlns="http://www.w3.org/2000/svg"><g fill="#57a4ff"><path d="m232 8h32v32h-32zm0 0"/><path d="m456 8h32v32h-32zm0 0"/><path d="m8 456h32v32h-32zm0 0"/><path d="m232 456h32v32h-32zm0 0"/><path d="m456 456h32v32h-32zm0 0"/><path d="m8 232h32v32h-32zm0 0"/><path d="m456 232h32v32h-32zm0 0"/><path d="m392 336-144 48v-192l144-32zm0 0"/><path d="m104 160 144-48 144 48-144 32zm0 0"/></g><path d="m488 48c4.417969 0 8-3.582031 8-8v-32c0-4.417969-3.582031-8-8-8h-32c-4.417969 0-8 3.582031-8 8v8h-176v-8c0-4.417969-3.582031-8-8-8h-32c-4.417969 0-8 3.582031-8 8v8h-176v-8c0-4.417969-3.582031-8-8-8h-32c-4.417969 0-8 3.582031-8 8v32c0 4.417969 3.582031 8 8 8h8v176h-8c-4.417969 0-8 3.582031-8 8v32c0 4.417969 3.582031 8 8 8h8v176h-8c-4.417969 0-8 3.582031-8 8v32c0 4.417969 3.582031 8 8 8h32c4.417969 0 8-3.582031 8-8v-8h176v8c0 4.417969 3.582031 8 8 8h32c4.417969 0 8-3.582031 8-8v-8h176v8c0 4.417969 3.582031 8 8 8h32c4.417969 0 8-3.582031 8-8v-32c0-4.417969-3.582031-8-8-8h-8v-176h8c4.417969 0 8-3.582031 8-8v-32c0-4.417969-3.582031-8-8-8h-8v-176zm-24-32h16v16h-16zm-224 0h16v16h-16zm-224 0h16v16h-16zm0 224h16v16h-16zm16 240h-16v-16h16zm224 0h-16v-16h16zm224 0h-16v-16h16zm0-224h-16v-16h16zm-16-32h-8c-4.417969 0-8 3.582031-8 8v32c0 4.417969 3.582031 8 8 8h8v176h-8c-4.417969 0-8 3.582031-8 8v8h-176v-8c0-4.417969-3.582031-8-8-8h-32c-4.417969 0-8 3.582031-8 8v8h-176v-8c0-4.417969-3.582031-8-8-8h-8v-176h8c4.417969 0 8-3.582031 8-8v-32c0-4.417969-3.582031-8-8-8h-8v-176h8c4.417969 0 8-3.582031 8-8v-8h176v8c0 4.417969 3.582031 8 8 8h32c4.417969 0 8-3.582031 8-8v-8h176v8c0 4.417969 3.582031 8 8 8h8zm0 0" fill="#004fac"/><path d="m400 336v-176c0-.105469-.0625-.191406-.0625-.289062-.050781-.902344-.253906-1.792969-.601562-2.632813-.078126-.191406-.070313-.40625-.167969-.589844-.492188-1-1.191407-1.882812-2.046875-2.59375-.050782 0-.066406-.101562-.113282-.132812-.257812-.152344-.527343-.289063-.800781-.410157-.507812-.382812-1.058593-.699218-1.648437-.945312l-144-48c-1.640625-.542969-3.414063-.542969-5.054688 0l-144 48c-.566406.246094-1.105468.558594-1.601562.929688-.292969.125-.578125.265624-.855469.425781-.046875 0-.0625.09375-.109375.132812-.859375.710938-1.554688 1.59375-2.050781 2.59375-.09375.183594-.085938.398438-.167969.589844-.347656.839844-.550781 1.730469-.597656 2.632813 0 .097656-.066406.183593-.066406.289062v176c0 3.445312 2.203124 6.503906 5.472656 7.59375l144 48h.046875c1.613281.53125 3.351562.53125 4.960937 0h.050782l144-48c3.246093-1.109375 5.421874-4.164062 5.414062-7.59375zm-152-215.566406 114.070312 38.023437-114.070312 25.351563-114.070312-25.351563zm-136 49.542968 128 28.421876v174.503906l-128-42.671875zm272 160.253907-128 42.671875v-174.503906l128-28.4375zm0 0" fill="#004fac"/><path d="m408 424h-56c-4.417969 0-8 3.582031-8 8s3.582031 8 8 8h56c4.417969 0 8-3.582031 8-8s-3.582031-8-8-8zm0 0" fill="#004fac"/><path d="m440 424h-8c-4.417969 0-8 3.582031-8 8s3.582031 8 8 8h8c4.417969 0 8-3.582031 8-8s-3.582031-8-8-8zm0 0" fill="#004fac"/></svg>